<svg width="19" height="19" viewBox="0 0 19 19" fill="none" xmlns="http://www.w3.org/2000/svg">
<path d="M8.64317 0C8.43478 0 8.23493 0.0827803 8.08758 0.23013C7.94023 0.37748 7.85745 0.57733 7.85745 0.785714C7.85745 0.994099 7.94023 1.19395 8.08758 1.3413C8.23493 1.48865 8.43478 1.57143 8.64317 1.57143H12.571V3.53571C12.571 4.18629 12.3227 4.64907 11.9424 4.96336C11.5448 5.291 10.9485 5.5 10.2138 5.5C10.0054 5.5 9.80557 5.58278 9.65822 5.73013C9.51087 5.87748 9.42809 6.07733 9.42809 6.28571C9.42809 6.4941 9.51087 6.69395 9.65822 6.8413C9.80557 6.98865 10.0054 7.07143 10.2138 7.07143C11.2313 7.07143 12.2072 6.78307 12.9434 6.17493C13.6945 5.55264 14.1424 4.64043 14.1424 3.53571V0.785714C14.1424 0.57733 14.0596 0.37748 13.9123 0.23013C13.7649 0.0827803 13.5651 0 13.3567 0H8.64317ZM7.01438 4.41179C6.95518 4.26768 6.85448 4.14442 6.72507 4.05768C6.59566 3.97093 6.44339 3.92462 6.28759 3.92462C6.1318 3.92462 5.97953 3.97093 5.85012 4.05768C5.72071 4.14442 5.62 4.26768 5.56081 4.41179L0.0592373 17.7721C-0.0201571 17.9648 -0.019728 18.1812 0.0604304 18.3737C0.140589 18.5661 0.29391 18.7188 0.486666 18.7982C0.679421 18.8776 0.895822 18.8772 1.08826 18.797C1.2807 18.7169 1.43341 18.5635 1.51281 18.3708L2.93259 14.9215H9.64259L11.0624 18.3708C11.1017 18.4662 11.1594 18.553 11.2323 18.6261C11.3051 18.6993 11.3916 18.7573 11.4869 18.797C11.5822 18.8367 11.6844 18.8572 11.7876 18.8575C11.8908 18.8577 11.9931 18.8375 12.0885 18.7982C12.184 18.7589 12.2707 18.7012 12.3439 18.6283C12.417 18.5555 12.4751 18.469 12.5148 18.3737C12.5544 18.2784 12.575 18.1762 12.5752 18.073C12.5754 17.9698 12.5553 17.8675 12.516 17.7721L10.976 14.0321C10.9581 13.8976 10.9056 13.77 10.8235 13.662L7.01438 4.41179ZM8.99517 13.3509H3.57924L6.28759 6.77443L8.99517 13.3509ZM15.7138 0C15.9222 0 16.122 0.0827803 16.2694 0.23013C16.4167 0.37748 16.4995 0.57733 16.4995 0.785714V4.71429H18.071C18.2793 4.71429 18.4792 4.79707 18.6265 4.94442C18.7739 5.09177 18.8567 5.29162 18.8567 5.5C18.8567 5.70838 18.7739 5.90823 18.6265 6.05558C18.4792 6.20293 18.2793 6.28571 18.071 6.28571H16.4995V13.3571C16.4995 13.5655 16.4167 13.7654 16.2694 13.9127C16.122 14.0601 15.9222 14.1429 15.7138 14.1429C15.5054 14.1429 15.3056 14.0601 15.1582 13.9127C15.0109 13.7654 14.9281 13.5655 14.9281 13.3571V0.785714C14.9281 0.57733 15.0109 0.37748 15.1582 0.23013C15.3056 0.0827803 15.5054 0 15.7138 0Z" fill="white"/>
</svg>
